<svg xmlns="http://www.w3.org/2000/svg" width="1800" height="760" viewBox="0 0 1800 760">
  <rect width="1800" height="760" fill="white"/>
  <line x1="90" y1="470" x2="1720" y2="470" stroke="black"/>
  <line x1="90" y1="70" x2="90" y2="470" stroke="black"/>
  <text x="30" y="270" transform="rotate(-90 30 270)" font-family="Arial, sans-serif" font-size="16" text-anchor="middle">success rate</text>
  <line x1="85" y1="470" x2="90" y2="470" stroke="black"/>
  <text x="78" y="475" font-family="Arial, sans-serif" font-size="12" text-anchor="end">0%</text>
  <line x1="85" y1="390" x2="90" y2="390" stroke="black"/>
  <text x="78" y="395" font-family="Arial, sans-serif" font-size="12" text-anchor="end">20%</text>
  <line x1="85" y1="310" x2="90" y2="310" stroke="black"/>
  <text x="78" y="315" font-family="Arial, sans-serif" font-size="12" text-anchor="end">40%</text>
  <line x1="85" y1="230" x2="90" y2="230" stroke="black"/>
  <text x="78" y="235" font-family="Arial, sans-serif" font-size="12" text-anchor="end">60%</text>
  <line x1="85" y1="150" x2="90" y2="150" stroke="black"/>
  <text x="78" y="155" font-family="Arial, sans-serif" font-size="12" text-anchor="end">80%</text>
  <line x1="85" y1="70" x2="90" y2="70" stroke="black"/>
  <text x="78" y="75" font-family="Arial, sans-serif" font-size="12" text-anchor="end">100%</text>

  <rect x="160" y="120.67" width="50" height="349.33" fill="#808080"/>
  <line x1="185" y1="116.91" x2="185" y2="124.43" stroke="black"/>
  <line x1="175" y1="116.91" x2="195" y2="116.91" stroke="black"/>
  <line x1="175" y1="124.43" x2="195" y2="124.43" stroke="black"/>
  <text x="185" y="104.91" font-family="Arial, sans-serif" font-size="12" text-anchor="middle">87.33% ± 0.94</text>
  <text x="185" y="500" font-family="Arial, sans-serif" font-size="12" text-anchor="middle">
    <tspan x="185" dy="0">dexjoco_physixel</tspan>
    <tspan x="185" dy="16">pick_bucket</tspan>
    <tspan x="185" dy="16">224</tspan>
  </text>

  <rect x="360" y="118.00" width="50" height="352.00" fill="#808080"/>
  <line x1="385" y1="98.40" x2="385" y2="137.60" stroke="black"/>
  <line x1="375" y1="98.40" x2="395" y2="98.40" stroke="black"/>
  <line x1="375" y1="137.60" x2="395" y2="137.60" stroke="black"/>
  <text x="385" y="86.40" font-family="Arial, sans-serif" font-size="12" text-anchor="middle">88.00% ± 4.90</text>
  <text x="385" y="500" font-family="Arial, sans-serif" font-size="12" text-anchor="middle">
    <tspan x="385" dy="0">dexjoco_physixel</tspan>
    <tspan x="385" dy="16">pick_bucket_poc1</tspan>
    <tspan x="385" dy="16">224</tspan>
  </text>

  <rect x="560" y="126.00" width="50" height="344.00" fill="#808080"/>
  <line x1="585" y1="112.92" x2="585" y2="139.08" stroke="black"/>
  <line x1="575" y1="112.92" x2="595" y2="112.92" stroke="black"/>
  <line x1="575" y1="139.08" x2="595" y2="139.08" stroke="black"/>
  <text x="585" y="100.92" font-family="Arial, sans-serif" font-size="12" text-anchor="middle">86.00% ± 3.27</text>
  <text x="585" y="500" font-family="Arial, sans-serif" font-size="12" text-anchor="middle">
    <tspan x="585" dy="0">dexjoco_physixel</tspan>
    <tspan x="585" dy="16">pick_bucket_poc3</tspan>
    <tspan x="585" dy="16">224</tspan>
  </text>

  <rect x="760" y="96.67" width="50" height="373.33" fill="#808080"/>
  <line x1="785" y1="89.11" x2="785" y2="104.23" stroke="black"/>
  <line x1="775" y1="89.11" x2="795" y2="89.11" stroke="black"/>
  <line x1="775" y1="104.23" x2="795" y2="104.23" stroke="black"/>
  <text x="785" y="77.11" font-family="Arial, sans-serif" font-size="12" text-anchor="middle">93.33% ± 1.89</text>
  <text x="785" y="500" font-family="Arial, sans-serif" font-size="12" text-anchor="middle">
    <tspan x="785" dy="0">dexjoco_physixel</tspan>
    <tspan x="785" dy="16">pick_bucket_poc4</tspan>
    <tspan x="785" dy="16">film_224</tspan>
  </text>

  <rect x="960" y="99.33" width="50" height="370.67" fill="#808080"/>
  <line x1="985" y1="95.57" x2="985" y2="103.09" stroke="black"/>
  <line x1="975" y1="95.57" x2="995" y2="95.57" stroke="black"/>
  <line x1="975" y1="103.09" x2="995" y2="103.09" stroke="black"/>
  <text x="985" y="83.57" font-family="Arial, sans-serif" font-size="12" text-anchor="middle">92.67% ± 0.94</text>
  <text x="985" y="500" font-family="Arial, sans-serif" font-size="12" text-anchor="middle">
    <tspan x="985" dy="0">dexjoco_physixel</tspan>
    <tspan x="985" dy="16">pick_bucket_poc4</tspan>
    <tspan x="985" dy="16">perpart_224</tspan>
  </text>

  <rect x="1160" y="126.00" width="50" height="344.00" fill="#808080"/>
  <line x1="1185" y1="119.48" x2="1185" y2="132.52" stroke="black"/>
  <line x1="1175" y1="119.48" x2="1195" y2="119.48" stroke="black"/>
  <line x1="1175" y1="132.52" x2="1195" y2="132.52" stroke="black"/>
  <text x="1185" y="107.48" font-family="Arial, sans-serif" font-size="12" text-anchor="middle">86.00% ± 1.63</text>
  <text x="1185" y="500" font-family="Arial, sans-serif" font-size="12" text-anchor="middle">
    <tspan x="1185" dy="0">dexjoco_physixel</tspan>
    <tspan x="1185" dy="16">pick_bucket_poc5</tspan>
    <tspan x="1185" dy="16">film_224</tspan>
  </text>

  <rect x="1360" y="118.00" width="50" height="352.00" fill="#808080"/>
  <line x1="1385" y1="95.36" x2="1385" y2="140.64" stroke="black"/>
  <line x1="1375" y1="95.36" x2="1395" y2="95.36" stroke="black"/>
  <line x1="1375" y1="140.64" x2="1395" y2="140.64" stroke="black"/>
  <text x="1385" y="83.36" font-family="Arial, sans-serif" font-size="12" text-anchor="middle">88.00% ± 5.66</text>
  <text x="1385" y="500" font-family="Arial, sans-serif" font-size="12" text-anchor="middle">
    <tspan x="1385" dy="0">dexjoco_physixel</tspan>
    <tspan x="1385" dy="16">pick_bucket_poc5</tspan>
    <tspan x="1385" dy="16">perpart_224</tspan>
  </text>

  <rect x="1560" y="128.67" width="50" height="341.33" fill="#808080"/>
  <line x1="1585" y1="118.71" x2="1585" y2="138.63" stroke="black"/>
  <line x1="1575" y1="118.71" x2="1595" y2="118.71" stroke="black"/>
  <line x1="1575" y1="138.63" x2="1595" y2="138.63" stroke="black"/>
  <text x="1585" y="106.71" font-family="Arial, sans-serif" font-size="12" text-anchor="middle">85.33% ± 2.49</text>
  <text x="1585" y="500" font-family="Arial, sans-serif" font-size="12" text-anchor="middle">
    <tspan x="1585" dy="0">dexjoco_pi05</tspan>
    <tspan x="1585" dy="16">pick_bucket</tspan>
  </text>
</svg>
